<mxfile host="app.diagrams.net" modified="2022-05-29T08:47:49.221Z" agent="5.0 (Windows NT 10.0; Win64; x64) AppleWebKit/537.36 (KHTML, like Gecko) Chrome/101.0.4951.64 Safari/537.36" etag="EWGLFytAlXo6NpAQBSdS" version="18.1.3" type="github">
  <diagram id="H3SunVaaLTiIdTKe_EXy" name="Page-1">
    <mxGraphModel dx="1038" dy="579" grid="1" gridSize="10" guides="1" tooltips="1" connect="1" arrows="1" fold="1" page="1" pageScale="1" pageWidth="827" pageHeight="1169" math="0" shadow="0">
      <root>
        <mxCell id="0" />
        <mxCell id="1" parent="0" />
        <mxCell id="5dS8vTCBn9iFk24PGKaD-3" value="" style="edgeStyle=orthogonalEdgeStyle;rounded=0;orthogonalLoop=1;jettySize=auto;html=1;" edge="1" parent="1" source="5dS8vTCBn9iFk24PGKaD-1" target="5dS8vTCBn9iFk24PGKaD-2">
          <mxGeometry relative="1" as="geometry" />
        </mxCell>
        <mxCell id="5dS8vTCBn9iFk24PGKaD-1" value="Пользователь заходит на сайт" style="rounded=1;whiteSpace=wrap;html=1;fillColor=#d5e8d4;strokeColor=#82b366;" vertex="1" parent="1">
          <mxGeometry x="10" y="70" width="120" height="60" as="geometry" />
        </mxCell>
        <mxCell id="5dS8vTCBn9iFk24PGKaD-5" value="" style="edgeStyle=orthogonalEdgeStyle;rounded=0;orthogonalLoop=1;jettySize=auto;html=1;" edge="1" parent="1" source="5dS8vTCBn9iFk24PGKaD-2" target="5dS8vTCBn9iFk24PGKaD-4">
          <mxGeometry relative="1" as="geometry" />
        </mxCell>
        <mxCell id="5dS8vTCBn9iFk24PGKaD-2" value="Переходит на страницу регистрации" style="whiteSpace=wrap;html=1;rounded=1;fillColor=#d5e8d4;strokeColor=#82b366;" vertex="1" parent="1">
          <mxGeometry x="170" y="70" width="120" height="60" as="geometry" />
        </mxCell>
        <mxCell id="5dS8vTCBn9iFk24PGKaD-7" value="" style="edgeStyle=orthogonalEdgeStyle;rounded=0;orthogonalLoop=1;jettySize=auto;html=1;" edge="1" parent="1" source="5dS8vTCBn9iFk24PGKaD-4" target="5dS8vTCBn9iFk24PGKaD-6">
          <mxGeometry relative="1" as="geometry" />
        </mxCell>
        <mxCell id="5dS8vTCBn9iFk24PGKaD-4" value="Вводит необходимые данные" style="whiteSpace=wrap;html=1;rounded=1;fillColor=#d5e8d4;strokeColor=#82b366;" vertex="1" parent="1">
          <mxGeometry x="320" y="70" width="120" height="60" as="geometry" />
        </mxCell>
        <mxCell id="5dS8vTCBn9iFk24PGKaD-9" value="" style="edgeStyle=orthogonalEdgeStyle;rounded=0;orthogonalLoop=1;jettySize=auto;html=1;" edge="1" parent="1" source="5dS8vTCBn9iFk24PGKaD-6" target="5dS8vTCBn9iFk24PGKaD-8">
          <mxGeometry relative="1" as="geometry" />
        </mxCell>
        <mxCell id="5dS8vTCBn9iFk24PGKaD-15" value="" style="edgeStyle=orthogonalEdgeStyle;rounded=0;orthogonalLoop=1;jettySize=auto;html=1;" edge="1" parent="1" source="5dS8vTCBn9iFk24PGKaD-6" target="5dS8vTCBn9iFk24PGKaD-14">
          <mxGeometry relative="1" as="geometry" />
        </mxCell>
        <mxCell id="5dS8vTCBn9iFk24PGKaD-6" value="Пользователь с введенным адресом электронной почты уже зарегистрирован?" style="rhombus;whiteSpace=wrap;html=1;rounded=1;fillColor=#e1d5e7;strokeColor=#9673a6;" vertex="1" parent="1">
          <mxGeometry x="480" y="30" width="150" height="140" as="geometry" />
        </mxCell>
        <mxCell id="5dS8vTCBn9iFk24PGKaD-11" value="" style="edgeStyle=orthogonalEdgeStyle;rounded=0;orthogonalLoop=1;jettySize=auto;html=1;" edge="1" parent="1" source="5dS8vTCBn9iFk24PGKaD-8" target="5dS8vTCBn9iFk24PGKaD-10">
          <mxGeometry relative="1" as="geometry" />
        </mxCell>
        <mxCell id="5dS8vTCBn9iFk24PGKaD-8" value="&quot;Вы уже зарегистрированы&quot;. Пользователя перенаправляют на страницу авторизации." style="whiteSpace=wrap;html=1;rounded=1;fillColor=#d5e8d4;strokeColor=#82b366;" vertex="1" parent="1">
          <mxGeometry x="660" y="45" width="120" height="110" as="geometry" />
        </mxCell>
        <mxCell id="5dS8vTCBn9iFk24PGKaD-21" value="" style="edgeStyle=orthogonalEdgeStyle;rounded=0;orthogonalLoop=1;jettySize=auto;html=1;" edge="1" parent="1" source="5dS8vTCBn9iFk24PGKaD-10" target="5dS8vTCBn9iFk24PGKaD-20">
          <mxGeometry relative="1" as="geometry" />
        </mxCell>
        <mxCell id="5dS8vTCBn9iFk24PGKaD-10" value="Пользователь авторизуется" style="whiteSpace=wrap;html=1;rounded=1;fillColor=#d5e8d4;strokeColor=#82b366;" vertex="1" parent="1">
          <mxGeometry x="660" y="180" width="120" height="60" as="geometry" />
        </mxCell>
        <mxCell id="5dS8vTCBn9iFk24PGKaD-17" value="" style="edgeStyle=orthogonalEdgeStyle;rounded=0;orthogonalLoop=1;jettySize=auto;html=1;" edge="1" parent="1" source="5dS8vTCBn9iFk24PGKaD-14" target="5dS8vTCBn9iFk24PGKaD-16">
          <mxGeometry relative="1" as="geometry" />
        </mxCell>
        <mxCell id="5dS8vTCBn9iFk24PGKaD-14" value="Пользователь получает подтверждение регистрации на почту" style="whiteSpace=wrap;html=1;rounded=1;fillColor=#d5e8d4;strokeColor=#82b366;" vertex="1" parent="1">
          <mxGeometry x="495" y="200" width="120" height="80" as="geometry" />
        </mxCell>
        <mxCell id="5dS8vTCBn9iFk24PGKaD-19" value="" style="edgeStyle=orthogonalEdgeStyle;rounded=0;orthogonalLoop=1;jettySize=auto;html=1;" edge="1" parent="1" source="5dS8vTCBn9iFk24PGKaD-16" target="5dS8vTCBn9iFk24PGKaD-18">
          <mxGeometry relative="1" as="geometry" />
        </mxCell>
        <mxCell id="5dS8vTCBn9iFk24PGKaD-16" value="Переходит по ссылке в письме" style="whiteSpace=wrap;html=1;rounded=1;fillColor=#d5e8d4;strokeColor=#82b366;" vertex="1" parent="1">
          <mxGeometry x="354" y="210" width="120" height="60" as="geometry" />
        </mxCell>
        <mxCell id="5dS8vTCBn9iFk24PGKaD-24" style="edgeStyle=orthogonalEdgeStyle;rounded=0;orthogonalLoop=1;jettySize=auto;html=1;exitX=0.5;exitY=1;exitDx=0;exitDy=0;entryX=0.5;entryY=0;entryDx=0;entryDy=0;" edge="1" parent="1" source="5dS8vTCBn9iFk24PGKaD-18" target="5dS8vTCBn9iFk24PGKaD-22">
          <mxGeometry relative="1" as="geometry">
            <Array as="points">
              <mxPoint x="270" y="340" />
              <mxPoint x="474" y="340" />
            </Array>
          </mxGeometry>
        </mxCell>
        <mxCell id="5dS8vTCBn9iFk24PGKaD-18" value="Пользователь авторизован" style="whiteSpace=wrap;html=1;rounded=1;fillColor=#d5e8d4;strokeColor=#82b366;" vertex="1" parent="1">
          <mxGeometry x="210" y="210" width="120" height="60" as="geometry" />
        </mxCell>
        <mxCell id="5dS8vTCBn9iFk24PGKaD-25" style="edgeStyle=orthogonalEdgeStyle;rounded=0;orthogonalLoop=1;jettySize=auto;html=1;exitX=0.5;exitY=1;exitDx=0;exitDy=0;entryX=0.5;entryY=0;entryDx=0;entryDy=0;" edge="1" parent="1" source="5dS8vTCBn9iFk24PGKaD-20" target="5dS8vTCBn9iFk24PGKaD-22">
          <mxGeometry relative="1" as="geometry" />
        </mxCell>
        <mxCell id="5dS8vTCBn9iFk24PGKaD-20" value="Пользователь авторизован" style="whiteSpace=wrap;html=1;rounded=1;fillColor=#d5e8d4;strokeColor=#82b366;" vertex="1" parent="1">
          <mxGeometry x="660" y="260" width="120" height="60" as="geometry" />
        </mxCell>
        <mxCell id="5dS8vTCBn9iFk24PGKaD-22" value="Вход выполнен" style="rounded=1;whiteSpace=wrap;html=1;fillColor=#d5e8d4;strokeColor=#82b366;" vertex="1" parent="1">
          <mxGeometry x="414" y="360" width="120" height="60" as="geometry" />
        </mxCell>
        <mxCell id="5dS8vTCBn9iFk24PGKaD-26" value="Да" style="text;html=1;strokeColor=none;fillColor=none;align=center;verticalAlign=middle;whiteSpace=wrap;rounded=0;" vertex="1" parent="1">
          <mxGeometry x="610" y="70" width="60" height="30" as="geometry" />
        </mxCell>
        <mxCell id="5dS8vTCBn9iFk24PGKaD-27" value="Нет" style="text;html=1;strokeColor=none;fillColor=none;align=center;verticalAlign=middle;whiteSpace=wrap;rounded=0;" vertex="1" parent="1">
          <mxGeometry x="540" y="170" width="60" height="30" as="geometry" />
        </mxCell>
        <mxCell id="5dS8vTCBn9iFk24PGKaD-28" value="&lt;font style=&quot;font-size: 36px;&quot;&gt;&lt;b style=&quot;background-color: rgb(216, 255, 186);&quot;&gt;Регистрация&lt;/b&gt;&lt;/font&gt;" style="text;html=1;strokeColor=none;fillColor=none;align=center;verticalAlign=middle;whiteSpace=wrap;rounded=0;" vertex="1" parent="1">
          <mxGeometry x="100" y="300" width="60" height="30" as="geometry" />
        </mxCell>
      </root>
    </mxGraphModel>
  </diagram>
</mxfile>
